<svg width="288" height="288" viewBox="0 0 288 288" fill="none" xmlns="http://www.w3.org/2000/svg">
<rect width="288" height="288" rx="10" fill="#2C7DFA"/>
<mask id="mask0_0_1472" style="mask-type:luminance" maskUnits="userSpaceOnUse" x="0" y="0" width="288" height="288">
<rect width="288" height="288" rx="10" fill="white"/>
</mask>
<g mask="url(#mask0_0_1472)">
<circle cx="266.5" cy="339.5" r="135" fill="#3685FF"/>
<circle cx="32.5" cy="-0.5" r="164" fill="#3685FF"/>
<rect x="119.172" y="64" width="5.51724" height="5.51724" fill="white"/>
<rect x="146.759" y="64" width="5.51724" height="5.51724" fill="white"/>
<rect x="152.276" y="64" width="5.51724" height="5.51724" fill="white"/>
<rect x="163.31" y="64" width="5.51724" height="5.51724" fill="white"/>
<rect x="108.138" y="69.5172" width="5.51724" height="5.51724" fill="white"/>
<rect x="113.655" y="69.5172" width="5.51724" height="5.51724" fill="white"/>
<rect x="124.69" y="69.5172" width="5.51724" height="5.51724" fill="white"/>
<rect x="130.207" y="69.5172" width="5.51724" height="5.51724" fill="white"/>
<rect x="135.724" y="69.5172" width="5.51724" height="5.51724" fill="white"/>
<rect x="141.241" y="69.5172" width="5.51724" height="5.51724" fill="white"/>
<rect x="152.276" y="69.5172" width="5.51724" height="5.51724" fill="white"/>
<rect x="157.793" y="69.5172" width="5.51724" height="5.51724" fill="white"/>
<rect x="174.345" y="69.5172" width="5.51724" height="5.51724" fill="white"/>
<rect x="108.138" y="75.0345" width="5.51724" height="5.51724" fill="white"/>
<rect x="113.655" y="75.0345" width="5.51724" height="5.51724" fill="white"/>
<rect x="119.172" y="75.0345" width="5.51724" height="5.51724" fill="white"/>
<rect x="130.207" y="75.0345" width="5.51724" height="5.51724" fill="white"/>
<rect x="135.724" y="75.0345" width="5.51724" height="5.51724" fill="white"/>
<rect x="146.759" y="75.0345" width="5.51724" height="5.51724" fill="white"/>
<rect x="163.31" y="75.0345" width="5.51724" height="5.51724" fill="white"/>
<rect x="174.345" y="75.0345" width="5.51724" height="5.51724" fill="white"/>
<rect x="108.138" y="80.5517" width="5.51724" height="5.51724" fill="white"/>
<rect x="113.655" y="80.5517" width="5.51724" height="5.51724" fill="white"/>
<rect x="124.69" y="80.5517" width="5.51724" height="5.51724" fill="white"/>
<rect x="152.276" y="80.5517" width="5.51724" height="5.51724" fill="white"/>
<rect x="157.793" y="80.5517" width="5.51724" height="5.51724" fill="white"/>
<rect x="174.345" y="80.5517" width="5.51724" height="5.51724" fill="white"/>
<rect x="113.655" y="86.069" width="5.51724" height="5.51724" fill="white"/>
<rect x="146.759" y="86.069" width="5.51724" height="5.51724" fill="white"/>
<rect x="152.276" y="86.069" width="5.51724" height="5.51724" fill="white"/>
<rect x="168.828" y="86.069" width="5.51724" height="5.51724" fill="white"/>
<rect x="174.345" y="86.069" width="5.51724" height="5.51724" fill="white"/>
<rect x="113.655" y="91.5862" width="5.51724" height="5.51724" fill="white"/>
<rect x="130.207" y="91.5862" width="5.51724" height="5.51724" fill="white"/>
<rect x="146.759" y="91.5862" width="5.51724" height="5.51724" fill="white"/>
<rect x="174.345" y="91.5862" width="5.51724" height="5.51724" fill="white"/>
<rect x="108.138" y="97.1035" width="5.51724" height="5.51724" fill="white"/>
<rect x="119.172" y="97.1035" width="5.51724" height="5.51724" fill="white"/>
<rect x="130.207" y="97.1035" width="5.51724" height="5.51724" fill="white"/>
<rect x="141.241" y="97.1035" width="5.51724" height="5.51724" fill="white"/>
<rect x="152.276" y="97.1035" width="5.51724" height="5.51724" fill="white"/>
<rect x="163.31" y="97.1035" width="5.51724" height="5.51724" fill="white"/>
<rect x="174.345" y="97.1035" width="5.51724" height="5.51724" fill="white"/>
<rect x="108.138" y="102.621" width="5.51724" height="5.51724" fill="white"/>
<rect x="124.69" y="102.621" width="5.51724" height="5.51724" fill="white"/>
<rect x="141.241" y="102.621" width="5.51724" height="5.51724" fill="white"/>
<rect x="146.759" y="102.621" width="5.51724" height="5.51724" fill="white"/>
<rect x="152.276" y="102.621" width="5.51724" height="5.51724" fill="white"/>
<rect x="163.31" y="102.621" width="5.51724" height="5.51724" fill="white"/>
<rect x="174.345" y="102.621" width="5.51724" height="5.51724" fill="white"/>
<rect x="64" y="108.138" width="5.51724" height="5.51724" fill="white"/>
<rect x="97.1035" y="108.138" width="5.51724" height="5.51724" fill="white"/>
<rect x="108.138" y="108.138" width="5.51724" height="5.51724" fill="white"/>
<rect x="119.172" y="108.138" width="5.51724" height="5.51724" fill="white"/>
<rect x="152.276" y="108.138" width="5.51724" height="5.51724" fill="white"/>
<rect x="157.793" y="108.138" width="5.51724" height="5.51724" fill="white"/>
<rect x="168.828" y="108.138" width="5.51724" height="5.51724" fill="white"/>
<rect x="179.862" y="108.138" width="5.51724" height="5.51724" fill="white"/>
<rect x="185.379" y="108.138" width="5.51724" height="5.51724" fill="white"/>
<rect x="201.931" y="108.138" width="5.51724" height="5.51724" fill="white"/>
<rect x="207.448" y="108.138" width="5.51724" height="5.51724" fill="white"/>
<rect x="212.966" y="108.138" width="5.51724" height="5.51724" fill="white"/>
<rect x="64" y="113.655" width="5.51724" height="5.51724" fill="white"/>
<rect x="75.0345" y="113.655" width="5.51724" height="5.51724" fill="white"/>
<rect x="91.5862" y="113.655" width="5.51724" height="5.51724" fill="white"/>
<rect x="135.724" y="113.655" width="5.51724" height="5.51724" fill="white"/>
<rect x="152.276" y="113.655" width="5.51724" height="5.51724" fill="white"/>
<rect x="157.793" y="113.655" width="5.51724" height="5.51724" fill="white"/>
<rect x="163.31" y="113.655" width="5.51724" height="5.51724" fill="white"/>
<rect x="168.828" y="113.655" width="5.51724" height="5.51724" fill="white"/>
<rect x="190.897" y="113.655" width="5.51724" height="5.51724" fill="white"/>
<rect x="196.414" y="113.655" width="5.51724" height="5.51724" fill="white"/>
<rect x="207.448" y="113.655" width="5.51724" height="5.51724" fill="white"/>
<rect x="212.966" y="113.655" width="5.51724" height="5.51724" fill="white"/>
<rect x="69.5172" y="119.172" width="5.51724" height="5.51724" fill="white"/>
<rect x="75.0345" y="119.172" width="5.51724" height="5.51724" fill="white"/>
<rect x="80.5517" y="119.172" width="5.51724" height="5.51724" fill="white"/>
<rect x="86.069" y="119.172" width="5.51724" height="5.51724" fill="white"/>
<rect x="97.1035" y="119.172" width="5.51724" height="5.51724" fill="white"/>
<rect x="102.621" y="119.172" width="5.51724" height="5.51724" fill="white"/>
<rect x="108.138" y="119.172" width="5.51724" height="5.51724" fill="white"/>
<rect x="113.655" y="119.172" width="5.51724" height="5.51724" fill="white"/>
<rect x="130.207" y="119.172" width="5.51724" height="5.51724" fill="white"/>
<rect x="135.724" y="119.172" width="5.51724" height="5.51724" fill="white"/>
<rect x="141.241" y="119.172" width="5.51724" height="5.51724" fill="white"/>
<rect x="146.759" y="119.172" width="5.51724" height="5.51724" fill="white"/>
<rect x="152.276" y="119.172" width="5.51724" height="5.51724" fill="white"/>
<rect x="157.793" y="119.172" width="5.51724" height="5.51724" fill="white"/>
<rect x="64" y="124.69" width="5.51724" height="5.51724" fill="white"/>
<rect x="75.0345" y="124.69" width="5.51724" height="5.51724" fill="white"/>
<rect x="91.5862" y="124.69" width="5.51724" height="5.51724" fill="white"/>
<rect x="102.621" y="124.69" width="5.51724" height="5.51724" fill="white"/>
<rect x="108.138" y="124.69" width="5.51724" height="5.51724" fill="white"/>
<rect x="113.655" y="124.69" width="5.51724" height="5.51724" fill="white"/>
<rect x="119.172" y="124.69" width="5.51724" height="5.51724" fill="white"/>
<rect x="130.207" y="124.69" width="5.51724" height="5.51724" fill="white"/>
<rect x="135.724" y="124.69" width="5.51724" height="5.51724" fill="white"/>
<rect x="174.345" y="124.69" width="5.51724" height="5.51724" fill="white"/>
<rect x="185.379" y="124.69" width="5.51724" height="5.51724" fill="white"/>
<rect x="190.897" y="124.69" width="5.51724" height="5.51724" fill="white"/>
<rect x="201.931" y="124.69" width="5.51724" height="5.51724" fill="white"/>
<rect x="69.5172" y="130.207" width="5.51724" height="5.51724" fill="white"/>
<rect x="91.5862" y="130.207" width="5.51724" height="5.51724" fill="white"/>
<rect x="97.1035" y="130.207" width="5.51724" height="5.51724" fill="white"/>
<rect x="108.138" y="130.207" width="5.51724" height="5.51724" fill="white"/>
<rect x="119.172" y="130.207" width="5.51724" height="5.51724" fill="white"/>
<rect x="135.724" y="130.207" width="5.51724" height="5.51724" fill="white"/>
<rect x="146.759" y="130.207" width="5.51724" height="5.51724" fill="white"/>
<rect x="152.276" y="130.207" width="5.51724" height="5.51724" fill="white"/>
<rect x="168.828" y="130.207" width="5.51724" height="5.51724" fill="white"/>
<rect x="174.345" y="130.207" width="5.51724" height="5.51724" fill="white"/>
<rect x="185.379" y="130.207" width="5.51724" height="5.51724" fill="white"/>
<rect x="190.897" y="130.207" width="5.51724" height="5.51724" fill="white"/>
<rect x="218.483" y="130.207" width="5.51724" height="5.51724" fill="white"/>
<rect x="75.0345" y="135.724" width="5.51724" height="5.51724" fill="white"/>
<rect x="86.069" y="135.724" width="5.51724" height="5.51724" fill="white"/>
<rect x="102.621" y="135.724" width="5.51724" height="5.51724" fill="white"/>
<rect x="113.655" y="135.724" width="5.51724" height="5.51724" fill="white"/>
<rect x="119.172" y="135.724" width="5.51724" height="5.51724" fill="white"/>
<rect x="152.276" y="135.724" width="5.51724" height="5.51724" fill="white"/>
<rect x="168.828" y="135.724" width="5.51724" height="5.51724" fill="white"/>
<path d="M174.345 135.724H179.862V141.241H174.345V135.724Z" fill="white"/>
<rect x="179.862" y="135.724" width="5.51724" height="5.51724" fill="white"/>
<rect x="185.379" y="135.724" width="5.51724" height="5.51724" fill="white"/>
<rect x="196.414" y="135.724" width="5.51724" height="5.51724" fill="white"/>
<rect x="212.966" y="135.724" width="5.51724" height="5.51724" fill="white"/>
<rect x="218.483" y="135.724" width="5.51724" height="5.51724" fill="white"/>
<rect x="64" y="141.241" width="5.51724" height="5.51724" fill="white"/>
<rect x="69.5172" y="141.241" width="5.51724" height="5.51724" fill="white"/>
<rect x="86.069" y="141.241" width="5.51724" height="5.51724" fill="white"/>
<rect x="97.1035" y="141.241" width="5.51724" height="5.51724" fill="white"/>
<rect x="108.138" y="141.241" width="5.51724" height="5.51724" fill="white"/>
<rect x="113.655" y="141.241" width="5.51724" height="5.51724" fill="white"/>
<rect x="157.793" y="141.241" width="5.51724" height="5.51724" fill="white"/>
<rect x="163.31" y="141.241" width="5.51724" height="5.51724" fill="white"/>
<rect x="179.862" y="141.241" width="5.51724" height="5.51724" fill="white"/>
<rect x="190.897" y="141.241" width="5.51724" height="5.51724" fill="white"/>
<rect x="201.931" y="141.241" width="5.51724" height="5.51724" fill="white"/>
<rect x="207.448" y="141.241" width="5.51724" height="5.51724" fill="white"/>
<rect x="108.138" y="146.759" width="5.51724" height="5.51724" fill="white"/>
<rect x="113.655" y="146.759" width="5.51724" height="5.51724" fill="white"/>
<rect x="119.172" y="146.759" width="5.51724" height="5.51724" fill="white"/>
<rect x="146.759" y="146.759" width="5.51724" height="5.51724" fill="white"/>
<rect x="163.31" y="146.759" width="5.51724" height="5.51724" fill="white"/>
<rect x="168.828" y="146.759" width="5.51724" height="5.51724" fill="white"/>
<rect x="190.897" y="146.759" width="5.51724" height="5.51724" fill="white"/>
<rect x="196.414" y="146.759" width="5.51724" height="5.51724" fill="white"/>
<rect x="207.448" y="146.759" width="5.51724" height="5.51724" fill="white"/>
<rect x="218.483" y="146.759" width="5.51724" height="5.51724" fill="white"/>
<rect x="64" y="152.276" width="5.51724" height="5.51724" fill="white"/>
<rect x="86.069" y="152.276" width="5.51724" height="5.51724" fill="white"/>
<rect x="91.5862" y="152.276" width="5.51724" height="5.51724" fill="white"/>
<rect x="97.1035" y="152.276" width="5.51724" height="5.51724" fill="white"/>
<rect x="124.69" y="152.276" width="5.51724" height="5.51724" fill="white"/>
<rect x="152.276" y="152.276" width="5.51724" height="5.51724" fill="white"/>
<rect x="157.793" y="152.276" width="5.51724" height="5.51724" fill="white"/>
<rect x="163.31" y="152.276" width="5.51724" height="5.51724" fill="white"/>
<rect x="168.828" y="152.276" width="5.51724" height="5.51724" fill="white"/>
<rect x="190.897" y="152.276" width="5.51724" height="5.51724" fill="white"/>
<rect x="201.931" y="152.276" width="5.51724" height="5.51724" fill="white"/>
<rect x="207.448" y="152.276" width="5.51724" height="5.51724" fill="white"/>
<rect x="64" y="157.793" width="5.51724" height="5.51724" fill="white"/>
<rect x="102.621" y="157.793" width="5.51724" height="5.51724" fill="white"/>
<rect x="108.138" y="157.793" width="5.51724" height="5.51724" fill="white"/>
<rect x="113.655" y="157.793" width="5.51724" height="5.51724" fill="white"/>
<rect x="124.69" y="157.793" width="5.51724" height="5.51724" fill="white"/>
<rect x="135.724" y="157.793" width="5.51724" height="5.51724" fill="white"/>
<rect x="141.241" y="157.793" width="5.51724" height="5.51724" fill="white"/>
<rect x="157.793" y="157.793" width="5.51724" height="5.51724" fill="white"/>
<rect x="163.31" y="157.793" width="5.51724" height="5.51724" fill="white"/>
<rect x="168.828" y="157.793" width="5.51724" height="5.51724" fill="white"/>
<rect x="174.345" y="157.793" width="5.51724" height="5.51724" fill="white"/>
<rect x="185.379" y="157.793" width="5.51724" height="5.51724" fill="white"/>
<rect x="190.897" y="157.793" width="5.51724" height="5.51724" fill="white"/>
<rect x="196.414" y="157.793" width="5.51724" height="5.51724" fill="white"/>
<rect x="207.448" y="157.793" width="5.51724" height="5.51724" fill="white"/>
<rect x="212.966" y="157.793" width="5.51724" height="5.51724" fill="white"/>
<rect x="218.483" y="157.793" width="5.51724" height="5.51724" fill="white"/>
<rect x="64" y="163.31" width="5.51724" height="5.51724" fill="white"/>
<rect x="69.5172" y="163.31" width="5.51724" height="5.51724" fill="white"/>
<rect x="80.5517" y="163.31" width="5.51724" height="5.51724" fill="white"/>
<rect x="86.069" y="163.31" width="5.51724" height="5.51724" fill="white"/>
<rect x="91.5862" y="163.31" width="5.51724" height="5.51724" fill="white"/>
<rect x="97.1035" y="163.31" width="5.51724" height="5.51724" fill="white"/>
<rect x="108.138" y="163.31" width="5.51724" height="5.51724" fill="white"/>
<rect x="113.655" y="163.31" width="5.51724" height="5.51724" fill="white"/>
<rect x="124.69" y="163.31" width="5.51724" height="5.51724" fill="white"/>
<rect x="146.759" y="163.31" width="5.51724" height="5.51724" fill="white"/>
<rect x="168.828" y="163.31" width="5.51724" height="5.51724" fill="white"/>
<rect x="201.931" y="163.31" width="5.51724" height="5.51724" fill="white"/>
<rect x="218.483" y="163.31" width="5.51724" height="5.51724" fill="white"/>
<rect x="64" y="168.828" width="5.51724" height="5.51724" fill="white"/>
<rect x="75.0345" y="168.828" width="5.51724" height="5.51724" fill="white"/>
<rect x="80.5517" y="168.828" width="5.51724" height="5.51724" fill="white"/>
<rect x="91.5862" y="168.828" width="5.51724" height="5.51724" fill="white"/>
<rect x="113.655" y="168.828" width="5.51724" height="5.51724" fill="white"/>
<rect x="119.172" y="168.828" width="5.51724" height="5.51724" fill="white"/>
<rect x="130.207" y="168.828" width="5.51724" height="5.51724" fill="white"/>
<rect x="135.724" y="168.828" width="5.51724" height="5.51724" fill="white"/>
<rect x="163.31" y="168.828" width="5.51724" height="5.51724" fill="white"/>
<rect x="174.345" y="168.828" width="5.51724" height="5.51724" fill="white"/>
<rect x="179.862" y="168.828" width="5.51724" height="5.51724" fill="white"/>
<rect x="185.379" y="168.828" width="5.51724" height="5.51724" fill="white"/>
<rect x="190.897" y="168.828" width="5.51724" height="5.51724" fill="white"/>
<rect x="196.414" y="168.828" width="5.51724" height="5.51724" fill="white"/>
<rect x="64" y="174.345" width="5.51724" height="5.51724" fill="white"/>
<rect x="86.069" y="174.345" width="5.51724" height="5.51724" fill="white"/>
<rect x="97.1035" y="174.345" width="5.51724" height="5.51724" fill="white"/>
<rect x="102.621" y="174.345" width="5.51724" height="5.51724" fill="white"/>
<rect x="113.655" y="174.345" width="5.51724" height="5.51724" fill="white"/>
<rect x="124.69" y="174.345" width="5.51724" height="5.51724" fill="white"/>
<rect x="141.241" y="174.345" width="5.51724" height="5.51724" fill="white"/>
<rect x="146.759" y="174.345" width="5.51724" height="5.51724" fill="white"/>
<rect x="157.793" y="174.345" width="5.51724" height="5.51724" fill="white"/>
<rect x="174.345" y="174.345" width="5.51724" height="5.51724" fill="white"/>
<rect x="179.862" y="174.345" width="5.51724" height="5.51724" fill="white"/>
<rect x="185.379" y="174.345" width="5.51724" height="5.51724" fill="white"/>
<rect x="190.897" y="174.345" width="5.51724" height="5.51724" fill="white"/>
<rect x="196.414" y="174.345" width="5.51724" height="5.51724" fill="white"/>
<rect x="207.448" y="174.345" width="5.51724" height="5.51724" fill="white"/>
<rect x="212.966" y="174.345" width="5.51724" height="5.51724" fill="white"/>
<rect x="218.483" y="174.345" width="5.51724" height="5.51724" fill="white"/>
<rect x="108.138" y="179.862" width="5.51724" height="5.51724" fill="white"/>
<rect x="113.655" y="179.862" width="5.51724" height="5.51724" fill="white"/>
<rect x="119.172" y="179.862" width="5.51724" height="5.51724" fill="white"/>
<rect x="141.241" y="179.862" width="5.51724" height="5.51724" fill="white"/>
<rect x="157.793" y="179.862" width="5.51724" height="5.51724" fill="white"/>
<rect x="163.31" y="179.862" width="5.51724" height="5.51724" fill="white"/>
<rect x="174.345" y="179.862" width="5.51724" height="5.51724" fill="white"/>
<rect x="196.414" y="179.862" width="5.51724" height="5.51724" fill="white"/>
<rect x="201.931" y="179.862" width="5.51724" height="5.51724" fill="white"/>
<rect x="130.207" y="185.379" width="5.51724" height="5.51724" fill="white"/>
<rect x="163.31" y="185.379" width="5.51724" height="5.51724" fill="white"/>
<rect x="168.828" y="185.379" width="5.51724" height="5.51724" fill="white"/>
<rect x="174.345" y="185.379" width="5.51724" height="5.51724" fill="white"/>
<rect x="185.379" y="185.379" width="5.51724" height="5.51724" fill="white"/>
<rect x="196.414" y="185.379" width="5.51724" height="5.51724" fill="white"/>
<rect x="201.931" y="185.379" width="5.51724" height="5.51724" fill="white"/>
<rect x="207.448" y="185.379" width="5.51724" height="5.51724" fill="white"/>
<rect x="119.172" y="190.897" width="5.51724" height="5.51724" fill="white"/>
<rect x="124.69" y="190.897" width="5.51724" height="5.51724" fill="white"/>
<rect x="141.241" y="190.897" width="5.51724" height="5.51724" fill="white"/>
<rect x="146.759" y="190.897" width="5.51724" height="5.51724" fill="white"/>
<rect x="152.276" y="190.897" width="5.51724" height="5.51724" fill="white"/>
<rect x="168.828" y="190.897" width="5.51724" height="5.51724" fill="white"/>
<rect x="174.345" y="190.897" width="5.51724" height="5.51724" fill="white"/>
<rect x="196.414" y="190.897" width="5.51724" height="5.51724" fill="white"/>
<rect x="218.483" y="190.897" width="5.51724" height="5.51724" fill="white"/>
<rect x="130.207" y="196.414" width="5.51724" height="5.51724" fill="white"/>
<rect x="135.724" y="196.414" width="5.51724" height="5.51724" fill="white"/>
<rect x="141.241" y="196.414" width="5.51724" height="5.51724" fill="white"/>
<rect x="152.276" y="196.414" width="5.51724" height="5.51724" fill="white"/>
<rect x="168.828" y="196.414" width="5.51724" height="5.51724" fill="white"/>
<rect x="174.345" y="196.414" width="5.51724" height="5.51724" fill="white"/>
<rect x="179.862" y="196.414" width="5.51724" height="5.51724" fill="white"/>
<rect x="185.379" y="196.414" width="5.51724" height="5.51724" fill="white"/>
<rect x="190.897" y="196.414" width="5.51724" height="5.51724" fill="white"/>
<rect x="196.414" y="196.414" width="5.51724" height="5.51724" fill="white"/>
<rect x="201.931" y="196.414" width="5.51724" height="5.51724" fill="white"/>
<rect x="113.655" y="201.931" width="5.51724" height="5.51724" fill="white"/>
<rect x="119.172" y="201.931" width="5.51724" height="5.51724" fill="white"/>
<rect x="124.69" y="201.931" width="5.51724" height="5.51724" fill="white"/>
<rect x="135.724" y="201.931" width="5.51724" height="5.51724" fill="white"/>
<rect x="141.241" y="201.931" width="5.51724" height="5.51724" fill="white"/>
<rect x="157.793" y="201.931" width="5.51724" height="5.51724" fill="white"/>
<rect x="163.31" y="201.931" width="5.51724" height="5.51724" fill="white"/>
<rect x="179.862" y="201.931" width="5.51724" height="5.51724" fill="white"/>
<rect x="190.897" y="201.931" width="5.51724" height="5.51724" fill="white"/>
<rect x="201.931" y="201.931" width="5.51724" height="5.51724" fill="white"/>
<rect x="207.448" y="201.931" width="5.51724" height="5.51724" fill="white"/>
<rect x="212.966" y="201.931" width="5.51724" height="5.51724" fill="white"/>
<rect x="113.655" y="207.448" width="5.51724" height="5.51724" fill="white"/>
<rect x="119.172" y="207.448" width="5.51724" height="5.51724" fill="white"/>
<rect x="146.759" y="207.448" width="5.51724" height="5.51724" fill="white"/>
<rect x="152.276" y="207.448" width="5.51724" height="5.51724" fill="white"/>
<rect x="157.793" y="207.448" width="5.51724" height="5.51724" fill="white"/>
<rect x="168.828" y="207.448" width="5.51724" height="5.51724" fill="white"/>
<rect x="179.862" y="207.448" width="5.51724" height="5.51724" fill="white"/>
<rect x="185.379" y="207.448" width="5.51724" height="5.51724" fill="white"/>
<rect x="190.897" y="207.448" width="5.51724" height="5.51724" fill="white"/>
<rect x="196.414" y="207.448" width="5.51724" height="5.51724" fill="white"/>
<rect x="201.931" y="207.448" width="5.51724" height="5.51724" fill="white"/>
<rect x="207.448" y="207.448" width="5.51724" height="5.51724" fill="white"/>
<rect x="212.966" y="207.448" width="5.51724" height="5.51724" fill="white"/>
<rect x="130.207" y="212.966" width="5.51724" height="5.51724" fill="white"/>
<rect x="146.759" y="212.966" width="5.51724" height="5.51724" fill="white"/>
<rect x="168.828" y="212.966" width="5.51724" height="5.51724" fill="white"/>
<rect x="179.862" y="212.966" width="5.51724" height="5.51724" fill="white"/>
<rect x="190.897" y="212.966" width="5.51724" height="5.51724" fill="white"/>
<rect x="201.931" y="212.966" width="5.51724" height="5.51724" fill="white"/>
<rect x="207.448" y="212.966" width="5.51724" height="5.51724" fill="white"/>
<rect x="218.483" y="212.966" width="5.51724" height="5.51724" fill="white"/>
<rect x="108.138" y="218.483" width="5.51724" height="5.51724" fill="white"/>
<rect x="113.655" y="218.483" width="5.51724" height="5.51724" fill="white"/>
<rect x="124.69" y="218.483" width="5.51724" height="5.51724" fill="white"/>
<rect x="135.724" y="218.483" width="5.51724" height="5.51724" fill="white"/>
<rect x="141.241" y="218.483" width="5.51724" height="5.51724" fill="white"/>
<rect x="157.793" y="218.483" width="5.51724" height="5.51724" fill="white"/>
<rect x="163.31" y="218.483" width="5.51724" height="5.51724" fill="white"/>
<rect x="168.828" y="218.483" width="5.51724" height="5.51724" fill="white"/>
<rect x="179.862" y="218.483" width="5.51724" height="5.51724" fill="white"/>
<rect x="185.379" y="218.483" width="5.51724" height="5.51724" fill="white"/>
<rect x="190.897" y="218.483" width="5.51724" height="5.51724" fill="white"/>
<rect x="196.414" y="218.483" width="5.51724" height="5.51724" fill="white"/>
<rect x="201.931" y="218.483" width="5.51724" height="5.51724" fill="white"/>
<rect x="207.448" y="218.483" width="5.51724" height="5.51724" fill="white"/>
<path fill-rule="evenodd" clip-rule="evenodd" d="M69.7931 64H96.8276H102.621V69.7931V96.8276V102.621H96.8276H69.7931H64V96.8276V69.7931V64H69.7931ZM69.7931 96.8276H96.8276V69.7931H69.7931V96.8276Z" fill="white"/>
<path fill-rule="evenodd" clip-rule="evenodd" d="M191.172 64H218.207H224V69.7931V96.8276V102.621H218.207H191.172H185.379V96.8276V69.7931V64H191.172ZM191.172 96.8276H218.207V69.7931H191.172V96.8276Z" fill="white"/>
<path fill-rule="evenodd" clip-rule="evenodd" d="M69.7931 185.379H96.8276H102.621V191.172V218.207V224H96.8276H69.7931H64V218.207V191.172V185.379H69.7931ZM69.7931 218.207H96.8276V191.172H69.7931V218.207Z" fill="white"/>
<rect x="75.0345" y="75.0345" width="16.5517" height="16.5517" fill="white"/>
<rect x="196.414" y="75.0345" width="16.5517" height="16.5517" fill="white"/>
<rect x="75.0345" y="196.414" width="16.5517" height="16.5517" fill="white"/>
</g>
</svg>
